# xmcd CD database file
#
# Track frame offsets:
#	150
#	16300
#	34096
#	54588
#	74307
#	87360
#	102852
#	122721
#	144807
#	159203
#	171902
#	184583
#	200329
#	218529
#	235905
#
# Disc length: 3398 seconds
#
# Revision: 0
# Processed by: cddbd v1.5.2PL0 Copyright (c) Steve Scherf et al.
# Submitted via: CDex 1.51
#
DISCID=bf0d440f
DTITLE=Lyambiko - Love... And Then
DYEAR=2006
DGENRE=Jazz
TTITLE0=Give It Up
TTITLE1=Quartier Bohème
TTITLE2=Lost Melody
TTITLE3=Peaceful Eyes
TTITLE4=Ballast Over Board
TTITLE5=Blue Moon
TTITLE6=Never Let Me Go
TTITLE7=Shadow Walk
TTITLE8=Small Day Tomorrow
TTITLE9=I'd Rather Stay In Bed
TTITLE10=It's Snowing On Me
TTITLE11=Share Your Dreams
TTITLE12=Tale Of The Tuna
TTITLE13=Motherless Child
TTITLE14=Over The Rainbow
EXTD=YEAR: 2006
EXTT0=
EXTT1=
EXTT2=
EXTT3=
EXTT4=
EXTT5=
EXTT6=
EXTT7=
EXTT8=
EXTT9=
EXTT10=
EXTT11=
EXTT12=
EXTT13=
EXTT14=
PLAYORDER=
